<?xml version="1.0" encoding="UTF-8"?>
<svg id="Capa_1" xmlns="http://www.w3.org/2000/svg" version="1.1" viewBox="0 0 1920 1071">
  <!-- Generator: Adobe Illustrator 29.1.0, SVG Export Plug-In . SVG Version: 2.1.0 Build 142)  -->
  <g>
    <path d="M420.5,79c0-42.4,32.5-81.4,86-81.4s40.6,8.2,50,16.4l-19,38.3c-6.5-5.6-17.3-10.6-29.4-10.6-20.6,0-35.2,14.9-35.2,33.8s7.9,25,27.1,25,24.6-4.5,32.3-9.7l4.6,40.1c-9.2,6.5-26.9,13.6-49.8,13.6-42.7,0-66.7-28.2-66.7-65.5Z"/>
    <path d="M608.4,86.5l-3.1,15.1h59.2l-8.1,40.3h-108.3L576.9.1h105.6l-8.1,40.5h-56.7l-2.7,13.8h46.7l-6.7,32.1h-46.7Z"/>
    <path d="M700.4.1h49.6l30.6,61.2.4-.2s2.3-17.2,3.8-24.1L792.1.1h49.2l-29,141.8h-45.8l-33.1-65.9-.6.2s-2.5,19.4-3.5,25.2l-8.3,40.5h-49.2L700.4.1Z"/>
    <path d="M882.7,44.3h-35.8L855.8.1h120.4l-9,44.2h-35.8l-20,97.6h-48.7l20-97.6Z"/>
    <path d="M990.2.1h59.6c36.9,0,54,19.6,54,44.8s-9.8,38.6-26.7,47.6v.4l11.7,48.9h-49.8l-9.8-40.1h-10.6l-8.1,40.1h-49.2L990.2.1ZM1038.1,67.6c11.7,0,17.5-5.8,17.5-16.6s-4-10.1-13.3-10.1h-11.3l-5.4,26.7h12.5Z"/>
    <path d="M1261.6,60c0,48.9-35,84.4-85.6,84.4s-65.2-26.9-65.2-62.7S1145.4-2.5,1196.6-2.5s65,28.2,65,62.5ZM1162.9,77.3c0,12.9,7.1,21.3,18.5,21.3,16.5,0,27.9-15.3,27.9-34s-6.9-21.1-18.5-21.1c-16.7,0-27.9,15.3-27.9,33.8Z"/>
    <path d="M1391,.1c42.5,0,66.2,21.3,66.2,56.7s-31,85.1-84.6,85.1h-60.8L1340.8.1h50.2ZM1370,97.9h10.4c17.1,0,28.1-15.3,28.1-35.8s-4.6-17.9-19.2-17.9h-8.3l-11,53.6Z"/>
    <path d="M1517.7,86.5l-3.1,15.1h59.2l-8.1,40.3h-108.3L1486.2.1h105.6l-8.1,40.5h-56.7l-2.7,13.8h46.7l-6.7,32.1h-46.7Z"/>
    <path d="M141.8,247.7l-3.1,15.1h59.2l-8.1,40.3h-108.3l29-141.8h105.6l-8.1,40.5h-56.7l-2.7,13.8h46.7l-6.7,32.1h-46.7Z"/>
    <path d="M233.9,161.4h49.6l30.6,61.2.4-.2s2.3-17.2,3.8-24.1l7.3-36.8h49.2l-29,141.8h-45.8l-33.1-65.9-.6.2s-2.5,19.4-3.5,25.2l-8.3,40.5h-49.2l28.7-141.8Z"/>
    <path d="M416.2,205.5h-35.8l9-44.2h120.4l-9,44.2h-35.8l-20,97.6h-48.7l20-97.6Z"/>
    <path d="M523.7,161.4h59.6c36.9,0,54,19.6,54,44.8s-9.8,38.6-26.7,47.6v.4l11.7,48.9h-49.8l-9.8-40.1h-10.6l-8.1,40.1h-49.2l29-141.8ZM571.6,228.8c11.7,0,17.5-5.8,17.5-16.6s-4-10.1-13.3-10.1h-11.3l-5.4,26.7h12.5Z"/>
    <path d="M696.2,247.7l-3.1,15.1h59.2l-8.1,40.3h-108.3l29-141.8h105.6l-8.1,40.5h-56.7l-2.7,13.8h46.7l-6.7,32.1h-46.7Z"/>
    <path d="M788.2,161.4h49.6l30.6,61.2.4-.2s2.3-17.2,3.8-24.1l7.3-36.8h49.2l-29,141.8h-45.8l-33.1-65.9-.6.2s-2.5,19.4-3.5,25.2l-8.3,40.5h-49.2l28.7-141.8Z"/>
    <path d="M1053.8,161.4l20.8,141.8h-51.5l-2.5-22.2h-39l-10.6,22.2h-56.9l76-141.8h63.5ZM997,244.1h21l-1.5-13.1c-.6-5.6-.8-30.2-.8-30.2h-1.3s-8.1,23.5-10.8,29.7l-6.7,13.6Z"/>
    <path d="M1158.4,253.3c-1.7-5-6.3-24.3-6.3-24.3h-.8s-2.5,22.4-4,29.7l-9.2,44.4h-49.4l29-141.8h51l15.8,49.1h.4l36.5-49.1h55.4l-29,141.8h-49.4l9.2-44.4c1.2-6.2,7.1-29.7,7.1-29.7h-.8s-11.3,18.5-15.6,24.3l-23.3,31.7h-6.5l-10.2-31.7Z"/>
    <path d="M1346.9,161.4l-29.2,141.8h-49.2l29.2-141.8h49.2Z"/>
    <path d="M1399,247.7l-3.1,15.1h59.2l-8.1,40.3h-108.3l29-141.8h105.6l-8.1,40.5h-56.7l-2.7,13.8h46.7l-6.7,32.1h-46.7Z"/>
    <path d="M1491.1,161.4h49.6l30.6,61.2.4-.2s2.3-17.2,3.8-24.1l7.3-36.8h49.2l-29,141.8h-45.8l-33.1-65.9-.6.2s-2.5,19.4-3.5,25.2l-8.3,40.5h-49.2l28.7-141.8Z"/>
    <path d="M1673.4,205.5h-35.8l9-44.2h120.4l-9,44.2h-35.8l-20,97.6h-48.7l20-97.6Z"/>
    <path d="M1911.3,221.3c0,48.9-35,84.4-85.6,84.4s-65.2-26.9-65.2-62.7,34.6-84.2,85.8-84.2,65,28.2,65,62.5ZM1812.5,238.5c0,12.9,7.1,21.3,18.5,21.3,16.5,0,27.9-15.3,27.9-34s-6.9-21.1-18.5-21.1c-16.7,0-27.9,15.3-27.9,33.8Z"/>
  </g>
  <g>
    <path d="M72.5,1014l58.7-162.8c42.7,27.6,120,52.4,184.1,52.4s63.1-14.7,63.1-40.5-4.4-16.6-18.7-22.1c-14.2-4.6-48-12-88.9-23-42.7-11-72.9-25.7-97.8-45.1-26.7-21.2-48-58.9-48-105.8,0-129.7,101.4-223.5,273.9-223.5s172.5,24.8,217,51.5l-59.6,160c-34.7-21.2-108.5-43.2-163.6-43.2s-60.5,10.1-60.5,34.9,5.3,15.6,16,19.3c22.2,5.5,48,11,91.6,23,45.3,12.9,79.1,29.4,99.6,48.7,31.1,27.6,45.3,68.1,45.3,104.8,0,126-84.5,228.1-271.2,228.1s-193-26.7-241-57Z"/>
    <path d="M1144.7,725c46.1,27.6,69.1,71.5,69.1,123,0,129.6-108.8,223-262.7,223h-332.7l127.2-627.2h291.2c139.2,0,194.5,72.4,194.5,143.9s-30.4,112.5-86.6,135.3v1.9ZM888.4,813.7l-22.1,106.8h67.3c46.1,0,65.4-28.6,65.4-64.8s-15.7-41.9-50.7-41.9h-59.9ZM976,691.7c35,0,51.6-29.5,51.6-58.1s-12.9-39.1-47-39.1h-47l-20.3,97.2h62.7Z"/>
    <path d="M1588.9,443.9c188,0,293.1,94.4,293.1,250.7s-137.3,376.5-374.2,376.5h-269.1l128.1-627.2h222.1ZM1495.8,876.6h46.1c75.6,0,124.4-67.7,124.4-158.2s-20.3-79.1-84.8-79.1h-36.9l-48.8,237.3Z"/>
  </g>
  <path d="M1911.3,382.1H8.7c-4.8,0-8.7-3.9-8.7-8.7s3.9-8.7,8.7-8.7h1902.5c4.8,0,8.7,3.9,8.7,8.7s-3.9,8.7-8.7,8.7Z"/>
</svg>