<?xml version="1.0" encoding="utf-8"?>
<!-- Generator: Adobe Illustrator 26.2.1, SVG Export Plug-In . SVG Version: 6.00 Build 0)  -->
<svg version="1.1" id="Layer_1" xmlns="http://www.w3.org/2000/svg" xmlns:xlink="http://www.w3.org/1999/xlink" x="0px" y="0px"
	 viewBox="0 0 67.23 67.23" style="enable-background:new 0 0 67.23 67.23;" xml:space="preserve">
<style type="text/css">
	.st0{clip-path:url(#SVGID_00000128447409723933781060000005082178356421448124_);fill:none;stroke:#000000;stroke-width:0.5;}
	.st1{fill:#FFD20A;}
	.st2{clip-path:url(#SVGID_00000013178329276407898790000010717622621766968206_);fill:#231F20;}
	
		.st3{clip-path:url(#SVGID_00000013178329276407898790000010717622621766968206_);fill:none;stroke:#000000;stroke-width:0.274;stroke-miterlimit:10;}
	.st4{clip-path:url(#SVGID_00000013178329276407898790000010717622621766968206_);fill:#FFFFFF;}
	.st5{fill:#FFFFFF;}
	.st6{clip-path:url(#SVGID_00000110470365046701185470000005984915651814547883_);}
	.st7{clip-path:url(#SVGID_00000110470365046701185470000005984915651814547883_);fill:#FDBE13;}
	
		.st8{clip-path:url(#SVGID_00000110470365046701185470000005984915651814547883_);fill-rule:evenodd;clip-rule:evenodd;fill:#FFFFFF;}
	.st9{clip-path:url(#SVGID_00000110470365046701185470000005984915651814547883_);fill:#FFC528;}
	.st10{clip-path:url(#SVGID_00000065773613646379680940000008622311576585781383_);}
	.st11{clip-path:url(#SVGID_00000176010346490013307780000014112420242543741104_);}
	.st12{clip-path:url(#SVGID_00000084513396333565260960000005534897796210095236_);}
	.st13{clip-path:url(#SVGID_00000124865865489637021190000009880843342386668179_);}
	.st14{clip-path:url(#SVGID_00000055695584064425663980000014088011092904001710_);}
	.st15{clip-path:url(#SVGID_00000138537355090019283980000012032894143832178345_);}
	.st16{clip-path:url(#SVGID_00000098180477649917093930000008408797659748062107_);fill:#FFFFFF;}
	.st17{clip-path:url(#SVGID_00000098180477649917093930000008408797659748062107_);}
	.st18{clip-path:url(#SVGID_00000098180477649917093930000008408797659748062107_);fill:#F4D60F;}
	.st19{clip-path:url(#SVGID_00000098180477649917093930000008408797659748062107_);fill:#EB2131;}
	.st20{clip-path:url(#SVGID_00000101805617098549119690000011055497190822533804_);}
	.st21{clip-path:url(#SVGID_00000180344834944351001890000008266588237367123632_);fill:none;stroke:#EB2131;stroke-width:0.058;}
	.st22{clip-path:url(#SVGID_00000126313829215237972320000016814054784911898012_);fill:#FFFFFF;}
	.st23{clip-path:url(#SVGID_00000126313829215237972320000016814054784911898012_);}
	.st24{clip-path:url(#SVGID_00000126313829215237972320000016814054784911898012_);fill:#FDD20E;}
	
		.st25{clip-path:url(#SVGID_00000126313829215237972320000016814054784911898012_);fill:none;stroke:#54565A;stroke-width:0.114;stroke-miterlimit:10;}
	.st26{clip-path:url(#SVGID_00000126313829215237972320000016814054784911898012_);fill:#54565A;}
	.st27{clip-path:url(#SVGID_00000126313829215237972320000016814054784911898012_);fill:#221F1F;}
	.st28{clip-path:url(#SVGID_00000126313829215237972320000016814054784911898012_);fill:#E11D39;}
	.st29{clip-path:url(#SVGID_00000126313829215237972320000016814054784911898012_);fill:#FEBC18;}
	.st30{clip-path:url(#SVGID_00000126313829215237972320000016814054784911898012_);fill:#E92429;}
	
		.st31{clip-path:url(#SVGID_00000126313829215237972320000016814054784911898012_);fill-rule:evenodd;clip-rule:evenodd;fill:#FFFFFF;}
	.st32{clip-path:url(#SVGID_00000126313829215237972320000016814054784911898012_);fill:#CE0E2D;}
	.st33{clip-path:url(#SVGID_00000126313829215237972320000016814054784911898012_);fill:#003DA6;}
	.st34{clip-path:url(#SVGID_00000126313829215237972320000016814054784911898012_);fill:#636569;}
	.st35{clip-path:url(#SVGID_00000126313829215237972320000016814054784911898012_);fill:#D65F00;}
	.st36{clip-path:url(#SVGID_00000151510511859946222150000012922871865478722959_);}
	.st37{clip-path:url(#SVGID_00000078735173011490378230000009091400049217468317_);fill:#A7A8A9;}
	.st38{clip-path:url(#SVGID_00000078735173011490378230000009091400049217468317_);fill:#FFFFFF;}
	.st39{clip-path:url(#SVGID_00000005981166633939237470000004092212804069965708_);fill:#4A4F54;}
	.st40{clip-path:url(#SVGID_00000005981166633939237470000004092212804069965708_);fill:#BC2F2C;}
	.st41{clip-path:url(#SVGID_00000005981166633939237470000004092212804069965708_);fill:#FFFFFF;}
	.st42{clip-path:url(#SVGID_00000169528869241893011080000005561877832517294518_);fill:#FFFFFF;}
	.st43{clip-path:url(#SVGID_00000169528869241893011080000005561877832517294518_);fill:#C40D3C;}
	.st44{clip-path:url(#SVGID_00000169528869241893011080000005561877832517294518_);fill:#636569;}
	.st45{clip-path:url(#SVGID_00000169528869241893011080000005561877832517294518_);}
	.st46{clip-path:url(#SVGID_00000169528869241893011080000005561877832517294518_);fill:#FAD010;}
	.st47{clip-path:url(#SVGID_00000169528869241893011080000005561877832517294518_);fill:#FBD00F;}
	
		.st48{clip-path:url(#SVGID_00000169528869241893011080000005561877832517294518_);fill:none;stroke:#FFFFFF;stroke-width:0.228;stroke-miterlimit:10;}
	.st49{clip-path:url(#SVGID_00000173143375452032726370000007890050951190749616_);}
	.st50{clip-path:url(#SVGID_00000141454574321388503520000001862301050739806897_);}
	
		.st51{clip-path:url(#SVGID_00000078741700323687104780000000551864365970749610_);fill:url(#SVGID_00000063609327185976305530000008872602536200638619_);}
	.st52{clip-path:url(#SVGID_00000010278822747787844530000011630421204832139156_);fill:#FFFFFF;}
	.st53{clip-path:url(#SVGID_00000010278822747787844530000011630421204832139156_);fill:#E11F26;}
	.st54{clip-path:url(#SVGID_00000010278822747787844530000011630421204832139156_);fill:#FDEC06;}
	.st55{clip-path:url(#SVGID_00000010278822747787844530000011630421204832139156_);}
	.st56{clip-path:url(#SVGID_00000010278822747787844530000011630421204832139156_);fill:#ED1C24;}
	.st57{clip-path:url(#SVGID_00000063625635545614825050000017356426255804818828_);fill:#231F20;}
	
		.st58{clip-path:url(#SVGID_00000063625635545614825050000017356426255804818828_);fill:none;stroke:#000000;stroke-width:0.274;stroke-miterlimit:10;}
	.st59{clip-path:url(#SVGID_00000063625635545614825050000017356426255804818828_);fill:#FFFFFF;}
	.st60{fill:none;stroke:#000000;stroke-width:0.274;stroke-miterlimit:10;}
	.st61{clip-path:url(#SVGID_00000078023446103686544440000017191719540997147275_);fill:#FDBE13;}
	.st62{clip-path:url(#SVGID_00000078023446103686544440000017191719540997147275_);}
	
		.st63{clip-path:url(#SVGID_00000078023446103686544440000017191719540997147275_);fill-rule:evenodd;clip-rule:evenodd;fill:#FFFFFF;}
	.st64{clip-path:url(#SVGID_00000078023446103686544440000017191719540997147275_);fill:#FFC528;}
	.st65{clip-path:url(#SVGID_00000065047637209605592020000009883818783996438935_);}
	.st66{clip-path:url(#SVGID_00000163791862420914155720000008696241703474654111_);}
	.st67{clip-path:url(#SVGID_00000125579434731143388950000011323332245868460729_);}
	.st68{clip-path:url(#SVGID_00000008118499213938107050000000860012455786621373_);}
	.st69{clip-path:url(#SVGID_00000044876808860061431470000003833038478334476930_);}
	.st70{clip-path:url(#SVGID_00000083800193820048316280000008360472301387194019_);}
	.st71{clip-path:url(#SVGID_00000078030432950078253840000015798261775867006338_);fill:#FFFFFF;}
	.st72{clip-path:url(#SVGID_00000078030432950078253840000015798261775867006338_);}
	.st73{clip-path:url(#SVGID_00000078030432950078253840000015798261775867006338_);fill:#F4D60F;}
	.st74{clip-path:url(#SVGID_00000078030432950078253840000015798261775867006338_);fill:#EB2131;}
	.st75{clip-path:url(#SVGID_00000075156681947726382980000009428951143534681263_);}
	.st76{clip-path:url(#SVGID_00000123417102786690529890000000012351489352327344_);fill:none;stroke:#EB2131;stroke-width:0.058;}
	.st77{clip-path:url(#SVGID_00000023976215420873081640000000155046283045971100_);fill:#FFFFFF;}
	.st78{clip-path:url(#SVGID_00000023976215420873081640000000155046283045971100_);}
	.st79{clip-path:url(#SVGID_00000023976215420873081640000000155046283045971100_);fill:#FDD20E;}
	
		.st80{clip-path:url(#SVGID_00000023976215420873081640000000155046283045971100_);fill:none;stroke:#54565A;stroke-width:0.114;stroke-miterlimit:10;}
	.st81{clip-path:url(#SVGID_00000023976215420873081640000000155046283045971100_);fill:#54565A;}
	.st82{clip-path:url(#SVGID_00000023976215420873081640000000155046283045971100_);fill:#221F1F;}
	.st83{clip-path:url(#SVGID_00000023976215420873081640000000155046283045971100_);fill:#E11D39;}
	.st84{clip-path:url(#SVGID_00000023976215420873081640000000155046283045971100_);fill:#FEBC18;}
	.st85{clip-path:url(#SVGID_00000023976215420873081640000000155046283045971100_);fill:#E92429;}
	
		.st86{clip-path:url(#SVGID_00000023976215420873081640000000155046283045971100_);fill-rule:evenodd;clip-rule:evenodd;fill:#FFFFFF;}
	.st87{clip-path:url(#SVGID_00000023976215420873081640000000155046283045971100_);fill:#CE0E2D;}
	.st88{clip-path:url(#SVGID_00000023976215420873081640000000155046283045971100_);fill:#003DA6;}
	.st89{clip-path:url(#SVGID_00000023976215420873081640000000155046283045971100_);fill:#636569;}
	.st90{clip-path:url(#SVGID_00000023976215420873081640000000155046283045971100_);fill:#D65F00;}
	.st91{clip-path:url(#SVGID_00000093160656367742711230000014490315392586943400_);}
	.st92{clip-path:url(#SVGID_00000140720243977894297530000007804225250706355842_);fill:#A7A8A9;}
	.st93{clip-path:url(#SVGID_00000140720243977894297530000007804225250706355842_);fill:#FFFFFF;}
	.st94{clip-path:url(#SVGID_00000060722023246627212250000001942468301744140468_);fill:#4A4F54;}
	.st95{clip-path:url(#SVGID_00000060722023246627212250000001942468301744140468_);fill:#BC2F2C;}
	.st96{clip-path:url(#SVGID_00000060722023246627212250000001942468301744140468_);fill:#FFFFFF;}
	.st97{clip-path:url(#SVGID_00000012458946136644492070000004773677897856523404_);fill:#FFFFFF;}
	.st98{clip-path:url(#SVGID_00000012458946136644492070000004773677897856523404_);fill:#C40D3C;}
	.st99{clip-path:url(#SVGID_00000012458946136644492070000004773677897856523404_);fill:#636569;}
	.st100{clip-path:url(#SVGID_00000012458946136644492070000004773677897856523404_);}
	.st101{clip-path:url(#SVGID_00000012458946136644492070000004773677897856523404_);fill:#FAD010;}
	.st102{clip-path:url(#SVGID_00000012458946136644492070000004773677897856523404_);fill:#FBD00F;}
	
		.st103{clip-path:url(#SVGID_00000012458946136644492070000004773677897856523404_);fill:none;stroke:#FFFFFF;stroke-width:0.228;stroke-miterlimit:10;}
	.st104{clip-path:url(#SVGID_00000178203441353356121190000005254058709585204884_);}
	.st105{clip-path:url(#SVGID_00000149340653403843182220000016739637634227093951_);}
	
		.st106{clip-path:url(#SVGID_00000170982555898306507590000016653621879449575073_);fill:url(#SVGID_00000078046993096002787700000004105944829411377568_);}
	.st107{clip-path:url(#SVGID_00000137812889741271319050000012690964805260034716_);fill:#FFFFFF;}
	.st108{clip-path:url(#SVGID_00000137812889741271319050000012690964805260034716_);fill:#E11F26;}
	.st109{clip-path:url(#SVGID_00000137812889741271319050000012690964805260034716_);fill:#FDEC06;}
	.st110{clip-path:url(#SVGID_00000137812889741271319050000012690964805260034716_);}
	.st111{clip-path:url(#SVGID_00000137812889741271319050000012690964805260034716_);fill:#ED1C24;}
	.st112{clip-path:url(#SVGID_00000080926321227875882010000005116412008928828825_);fill:#231F20;}
	
		.st113{clip-path:url(#SVGID_00000080926321227875882010000005116412008928828825_);fill:none;stroke:#000000;stroke-width:0.274;stroke-miterlimit:10;}
	.st114{clip-path:url(#SVGID_00000080926321227875882010000005116412008928828825_);fill:#FFFFFF;}
	.st115{clip-path:url(#SVGID_00000044896797144354259830000017124353758095228064_);}
	.st116{clip-path:url(#SVGID_00000166672942184104670310000000716150666591719606_);fill:#FDBE13;}
	.st117{clip-path:url(#SVGID_00000166672942184104670310000000716150666591719606_);}
	
		.st118{clip-path:url(#SVGID_00000166672942184104670310000000716150666591719606_);fill-rule:evenodd;clip-rule:evenodd;fill:#FFFFFF;}
	.st119{clip-path:url(#SVGID_00000166672942184104670310000000716150666591719606_);fill:#FFC528;}
	.st120{clip-path:url(#SVGID_00000162327616947299849070000011992574150284867717_);}
	.st121{clip-path:url(#SVGID_00000070840613531916578740000016659381054800280747_);}
	.st122{clip-path:url(#SVGID_00000145036396411659576320000004541502113120883356_);fill:#FFFFFF;}
	.st123{clip-path:url(#SVGID_00000145036396411659576320000004541502113120883356_);}
	.st124{clip-path:url(#SVGID_00000145036396411659576320000004541502113120883356_);fill:#F4D60F;}
	.st125{clip-path:url(#SVGID_00000145036396411659576320000004541502113120883356_);fill:#EB2131;}
	.st126{fill:none;stroke:#EB2131;stroke-width:0.017;}
	.st127{clip-path:url(#SVGID_00000106836721317336259980000013509253052016434068_);fill:#FFFFFF;}
	.st128{fill:none;stroke:#FFFFFF;stroke-width:0.387;}
	.st129{clip-path:url(#SVGID_00000070835688733135679930000015098221664136057268_);fill:#EB2131;}
	.st130{clip-path:url(#SVGID_00000164507177207282596730000011886171055122054332_);fill:none;stroke:#EB2131;stroke-width:0.058;}
	.st131{fill:#E31E39;}
	.st132{clip-path:url(#SVGID_00000003804561368542778340000010376230962612719503_);fill:#FFFFFF;}
	.st133{clip-path:url(#SVGID_00000003804561368542778340000010376230962612719503_);}
	.st134{clip-path:url(#SVGID_00000003804561368542778340000010376230962612719503_);fill:#FDD20E;}
	.st135{fill:none;stroke:#54565A;stroke-width:0.114;stroke-miterlimit:10;}
	.st136{fill:#54565A;}
	.st137{clip-path:url(#SVGID_00000123412338029879130100000014397375376478761634_);}
	.st138{fill:#FCD10E;}
	.st139{clip-path:url(#SVGID_00000122679760166292563820000004172645505566384298_);fill:#221F1F;}
	.st140{clip-path:url(#SVGID_00000122679760166292563820000004172645505566384298_);fill:#E11D39;}
	.st141{clip-path:url(#SVGID_00000122679760166292563820000004172645505566384298_);fill:#FFFFFF;}
	.st142{clip-path:url(#SVGID_00000122679760166292563820000004172645505566384298_);fill:#FEBC18;}
	.st143{clip-path:url(#SVGID_00000122679760166292563820000004172645505566384298_);fill:#E92429;}
	
		.st144{clip-path:url(#SVGID_00000122679760166292563820000004172645505566384298_);fill-rule:evenodd;clip-rule:evenodd;fill:#FFFFFF;}
	
		.st145{clip-path:url(#SVGID_00000122679760166292563820000004172645505566384298_);fill:none;stroke:#54565A;stroke-width:0.114;stroke-miterlimit:10;}
	.st146{clip-path:url(#SVGID_00000122679760166292563820000004172645505566384298_);fill:#CE0E2D;}
	.st147{clip-path:url(#SVGID_00000122679760166292563820000004172645505566384298_);fill:#003DA6;}
	.st148{clip-path:url(#SVGID_00000122679760166292563820000004172645505566384298_);fill:#636569;}
	.st149{clip-path:url(#SVGID_00000122679760166292563820000004172645505566384298_);fill:#D65F00;}
	.st150{clip-path:url(#SVGID_00000122679760166292563820000004172645505566384298_);}
	.st151{clip-path:url(#SVGID_00000003799320794300900950000015540635303825335209_);fill:#A7A8A9;}
	.st152{clip-path:url(#SVGID_00000003799320794300900950000015540635303825335209_);fill:#FFFFFF;}
	.st153{clip-path:url(#SVGID_00000088104236982313009980000002390127016671204251_);fill:#4A4F54;}
	.st154{clip-path:url(#SVGID_00000088104236982313009980000002390127016671204251_);fill:#BC2F2C;}
	.st155{clip-path:url(#SVGID_00000088104236982313009980000002390127016671204251_);fill:#FFFFFF;}
	.st156{fill:#C40D3C;}
	.st157{fill:#636569;}
	.st158{clip-path:url(#SVGID_00000034075040725826703250000015768711174370275771_);fill:#FFFFFF;}
	.st159{clip-path:url(#SVGID_00000034075040725826703250000015768711174370275771_);fill:#C40D3C;}
	.st160{clip-path:url(#SVGID_00000034075040725826703250000015768711174370275771_);fill:#636569;}
	.st161{clip-path:url(#SVGID_00000034075040725826703250000015768711174370275771_);}
	.st162{clip-path:url(#SVGID_00000034075040725826703250000015768711174370275771_);fill:#FAD010;}
	.st163{clip-path:url(#SVGID_00000034075040725826703250000015768711174370275771_);fill:#FBD00F;}
	
		.st164{clip-path:url(#SVGID_00000034075040725826703250000015768711174370275771_);fill:none;stroke:#FFFFFF;stroke-width:0.228;stroke-miterlimit:10;}
	
		.st165{clip-path:url(#SVGID_00000063617347308319513840000004373182925378401409_);fill:url(#SVGID_00000091004201039933887250000015808587709828585621_);}
	.st166{clip-path:url(#SVGID_00000056413531599870092340000002633635012355296686_);fill:#FFFFFF;}
	.st167{clip-path:url(#SVGID_00000056413531599870092340000002633635012355296686_);fill:#E11F26;}
	.st168{clip-path:url(#SVGID_00000056413531599870092340000002633635012355296686_);fill:#FDEC06;}
	.st169{clip-path:url(#SVGID_00000056413531599870092340000002633635012355296686_);}
	.st170{clip-path:url(#SVGID_00000056413531599870092340000002633635012355296686_);fill:#ED1C24;}
</style>
<g>
	<defs>
		<rect id="SVGID_1_" x="-647.16" y="-525.33" width="1224" height="792"/>
	</defs>
	<clipPath id="SVGID_00000086665535153034684450000000357107116232849586_">
		<use xlink:href="#SVGID_1_"  style="overflow:visible;"/>
	</clipPath>
</g>
<g>
	<defs>
		<rect id="SVGID_00000085963109983045097010000016617263325187565702_" x="-72.66" y="-61.33" width="566.77" height="36"/>
	</defs>
	<clipPath id="SVGID_00000112633075167290926950000013356543505431843256_">
		<use xlink:href="#SVGID_00000085963109983045097010000016617263325187565702_"  style="overflow:visible;"/>
	</clipPath>
	
		<rect x="10.47" y="67.21" style="clip-path:url(#SVGID_00000112633075167290926950000013356543505431843256_);" width="67.51" height="67.5"/>
</g>
<g>
	<defs>
		<rect id="SVGID_00000161624308413506259910000015124295763428982448_" x="-72.66" y="-61.33" width="566.77" height="36"/>
	</defs>
	<clipPath id="SVGID_00000030457644683545149800000000244977716092279948_">
		<use xlink:href="#SVGID_00000161624308413506259910000015124295763428982448_"  style="overflow:visible;"/>
	</clipPath>
</g>
<g>
	<defs>
		<rect id="SVGID_00000151508178455276676920000017555355146479670206_" x="-72.66" y="-61.33" width="566.77" height="36"/>
	</defs>
	<clipPath id="SVGID_00000088104600510949317590000006697163885948790697_">
		<use xlink:href="#SVGID_00000151508178455276676920000017555355146479670206_"  style="overflow:visible;"/>
	</clipPath>
</g>
<g>
	<defs>
		<rect id="SVGID_00000179610100250654284190000000359635878736493448_" x="-72.66" y="-61.33" width="566.77" height="36"/>
	</defs>
	<clipPath id="SVGID_00000061429964543679266960000007093811998341961124_">
		<use xlink:href="#SVGID_00000179610100250654284190000000359635878736493448_"  style="overflow:visible;"/>
	</clipPath>
</g>
<g>
	<defs>
		<rect id="SVGID_00000174602238891938754010000008938135316785201849_" x="-72.66" y="-61.33" width="566.77" height="36"/>
	</defs>
	<clipPath id="SVGID_00000175310069968913402600000011088467259296048538_">
		<use xlink:href="#SVGID_00000174602238891938754010000008938135316785201849_"  style="overflow:visible;"/>
	</clipPath>
</g>
<g>
	<defs>
		<rect id="SVGID_00000060733468097106201720000009938012798708422537_" x="-72.66" y="-61.33" width="566.77" height="36"/>
	</defs>
	<clipPath id="SVGID_00000057137378110700430680000010773573845329033150_">
		<use xlink:href="#SVGID_00000060733468097106201720000009938012798708422537_"  style="overflow:visible;"/>
	</clipPath>
	
		<rect x="11.06" y="-9.92" style="clip-path:url(#SVGID_00000057137378110700430680000010773573845329033150_);fill:#FFFFFF;" width="67.12" height="67.12"/>
	
		<rect x="11.06" y="-9.92" style="clip-path:url(#SVGID_00000057137378110700430680000010773573845329033150_);fill:none;stroke:#54565A;stroke-width:0.114;stroke-miterlimit:10;" width="67.12" height="67.12"/>
	<path style="clip-path:url(#SVGID_00000057137378110700430680000010773573845329033150_);fill:#54565A;" d="M62.75,12.16H26.38
		c-2.26,0-4.11,1.85-4.11,4.11V31c0,2.26,1.85,4.11,4.11,4.11h36.36c2.26,0,4.11-1.85,4.11-4.11V16.27
		C66.86,14.01,65.01,12.16,62.75,12.16 M62.75,13.52c0.73,0,1.42,0.29,1.94,0.81s0.81,1.21,0.81,1.94V31c0,0.73-0.29,1.42-0.81,1.94
		c-0.52,0.52-1.21,0.81-1.94,0.81H26.38c-0.73,0-1.42-0.29-1.94-0.81c-0.52-0.52-0.81-1.21-0.81-1.94V16.27
		c0-0.73,0.29-1.42,0.81-1.94c0.52-0.52,1.21-0.81,1.94-0.81H62.75"/>
	<path style="clip-path:url(#SVGID_00000057137378110700430680000010773573845329033150_);fill:#54565A;" d="M45.39,19.74
		c0-1.61,1.25-3.21,3.36-3.21c1.09,0,1.9,0.4,2.02,0.46v1.32c-0.11-0.07-0.81-0.52-1.81-0.52c-1.36,0-2.14,0.9-2.14,1.95
		c0,1.16,0.86,1.95,2.06,1.95c0.84,0,1.41-0.4,1.56-0.5l0.65,1.01c-0.26,0.21-0.97,0.75-2.4,0.75
		C46.74,22.95,45.39,21.47,45.39,19.74 M38.82,27.53c0-1.61,1.26-3.21,3.36-3.21c1.09,0,1.9,0.4,2.02,0.46v1.32
		c-0.11-0.07-0.81-0.52-1.8-0.52c-1.36,0-2.14,0.9-2.14,1.95c0,1.16,0.86,1.95,2.06,1.95c0.83,0,1.41-0.4,1.55-0.5l0.66,1.01
		c-0.26,0.22-0.96,0.75-2.4,0.75C40.17,30.74,38.82,29.26,38.82,27.53 M61.48,26.49c0-0.56-0.43-0.83-1.1-0.83h-1.12v1.65h1.15
		C61.08,27.31,61.48,27.01,61.48,26.49 M62.87,26.42c0,1.5-1.11,1.91-1.55,2.01l1.8,2.21h-1.72l-1.63-2.12h-0.5v2.12H57.9v-6.21
		h2.63C62.01,24.43,62.87,25.26,62.87,26.42 M33.47,24.43h4.46v1.22h-3.1v1.23h2.74v1.21h-2.74v1.33h3.14v1.22h-4.5V24.43z
		 M52.05,24.43h4.45v1.22h-3.1v1.23h2.74v1.21H53.4v1.33h3.14v1.22h-4.5V24.43z M30.96,27.53c0-1.1-0.76-1.87-1.87-1.87h-0.97v3.75
		h0.97C30.2,29.4,30.96,28.63,30.96,27.53 M32.39,27.53c0,1.75-1.35,3.11-3.3,3.11h-2.34v-6.21h2.34
		C31.04,24.43,32.39,25.78,32.39,27.53 M59.52,20.35h-1.61v-1.23h1.61v-1.6h1.26v1.6h1.61v1.23h-1.61v1.6h-1.26V20.35z M45.48,24.42
		h1.37v2.71l2.34-2.71h1.83l-2.76,3.01l2.91,3.2h-1.83l-2.49-2.8v2.8h-1.37V24.42z M52.04,16.63h1.37v2.72l2.34-2.72h1.83
		l-2.75,3.01l2.9,3.2H55.9l-2.49-2.8v2.8h-1.37V16.63z M42.57,20.33l-0.86-2.1l-0.87,2.1H42.57z M41.09,16.59h1.34l2.66,6.26h-1.51
		l-0.57-1.39h-2.63l-0.57,1.39h-1.44L41.09,16.59z M33.47,16.63h1.37v4.97h3.09v1.24h-4.46V16.63z M30.67,20.96
		c0-0.39-0.29-0.68-0.99-0.68h-1.6v1.37h1.6C30.29,21.65,30.67,21.43,30.67,20.96 M31.68,18.25c0,0.8-0.54,1.22-0.82,1.35
		c0.33,0.1,1.16,0.44,1.16,1.54c0,1.14-0.92,1.71-2.33,1.71h-2.96v-6.21h2.88C31.03,16.63,31.68,17.39,31.68,18.25 M30.33,18.49
		c0-0.41-0.34-0.66-0.92-0.66h-1.33v1.31h1.33C30.01,19.14,30.33,18.89,30.33,18.49"/>
	<path style="clip-path:url(#SVGID_00000057137378110700430680000010773573845329033150_);fill:#54565A;" d="M66.48,12.82
		c0.06,0,0.09-0.03,0.09-0.07c0-0.05-0.03-0.07-0.09-0.07h-0.11v0.15H66.48z M66.25,12.56h0.25c0.12,0,0.21,0.06,0.21,0.17
		c0,0.08-0.05,0.14-0.12,0.16l0.13,0.19h-0.15l-0.11-0.16h-0.08v0.16h-0.13V12.56z M66.9,12.84L66.9,12.84
		c0-0.25-0.19-0.45-0.45-0.45c-0.25,0-0.45,0.21-0.45,0.45v0c0,0.25,0.19,0.45,0.45,0.45C66.71,13.29,66.9,13.08,66.9,12.84
		 M65.95,12.84L65.95,12.84c0-0.28,0.22-0.51,0.5-0.51c0.28,0,0.5,0.23,0.5,0.51v0c0,0.27-0.22,0.51-0.5,0.51
		C66.17,13.34,65.95,13.11,65.95,12.84"/>
</g>
<g>
	<defs>
		<rect id="SVGID_00000174594308659465583800000011733586972128441007_" x="-72.66" y="-61.33" width="566.77" height="36"/>
	</defs>
	<clipPath id="SVGID_00000114765190036478712450000002071804556107350697_">
		<use xlink:href="#SVGID_00000174594308659465583800000011733586972128441007_"  style="overflow:visible;"/>
	</clipPath>
</g>
<g>
	<defs>
		<rect id="SVGID_00000159470267303890730190000000717155057581580457_" x="-72.66" y="-61.33" width="566.77" height="36"/>
	</defs>
	<clipPath id="SVGID_00000170975662564736286970000018407092523681744518_">
		<use xlink:href="#SVGID_00000159470267303890730190000000717155057581580457_"  style="overflow:visible;"/>
	</clipPath>
</g>
<g>
	<defs>
		<rect id="SVGID_00000016059231503839568150000017890476297862578859_" x="-72.66" y="-61.33" width="566.77" height="36"/>
	</defs>
	<clipPath id="SVGID_00000037683816611974979320000011842692905048443781_">
		<use xlink:href="#SVGID_00000016059231503839568150000017890476297862578859_"  style="overflow:visible;"/>
	</clipPath>
</g>
<g>
	<defs>
		<rect id="SVGID_00000117642082449180675640000018433747066283589792_" x="-72.66" y="-61.33" width="566.77" height="36"/>
	</defs>
	<clipPath id="SVGID_00000086666636591331445680000000488632936871355008_">
		<use xlink:href="#SVGID_00000117642082449180675640000018433747066283589792_"  style="overflow:visible;"/>
	</clipPath>
</g>
<g>
	<defs>
		<rect id="SVGID_00000000194186423502934430000011700915691876901293_" x="-83.66" y="-16.38" width="566.77" height="240.91"/>
	</defs>
	<clipPath id="SVGID_00000032646415730688367590000014793341830181983655_">
		<use xlink:href="#SVGID_00000000194186423502934430000011700915691876901293_"  style="overflow:visible;"/>
	</clipPath>
</g>
<g>
	<defs>
		<rect id="SVGID_00000048478697041185565880000011307568893570870701_" x="-83.66" y="-16.38" width="566.77" height="240.91"/>
	</defs>
	<clipPath id="SVGID_00000105399557622856556290000005049565853959968129_">
		<use xlink:href="#SVGID_00000048478697041185565880000011307568893570870701_"  style="overflow:visible;"/>
	</clipPath>
</g>
<g>
	<defs>
		<rect id="SVGID_00000082362417174385489580000016660782122974195611_" x="-83.66" y="-16.38" width="566.77" height="240.91"/>
	</defs>
	<clipPath id="SVGID_00000162312461877948407580000014419895570973245836_">
		<use xlink:href="#SVGID_00000082362417174385489580000016660782122974195611_"  style="overflow:visible;"/>
	</clipPath>
</g>
<g>
	<defs>
		<rect id="SVGID_00000078012861577247331700000014763466908520264589_" x="-83.66" y="-16.38" width="566.77" height="240.91"/>
	</defs>
	<clipPath id="SVGID_00000080910465686650255660000011266537963504875700_">
		<use xlink:href="#SVGID_00000078012861577247331700000014763466908520264589_"  style="overflow:visible;"/>
	</clipPath>
</g>
<g>
	<defs>
		<rect id="SVGID_00000182487811795747059980000002643185168049709236_" x="-83.66" y="-16.38" width="566.77" height="240.91"/>
	</defs>
	<clipPath id="SVGID_00000167385004371906522520000013699396753513984679_">
		<use xlink:href="#SVGID_00000182487811795747059980000002643185168049709236_"  style="overflow:visible;"/>
	</clipPath>
</g>
<g>
	<defs>
		<rect id="SVGID_00000022539660917719140020000001883825747547757463_" x="-83.66" y="-16.38" width="566.77" height="240.91"/>
	</defs>
	<clipPath id="SVGID_00000072242817389544080490000013794762462472548754_">
		<use xlink:href="#SVGID_00000022539660917719140020000001883825747547757463_"  style="overflow:visible;"/>
	</clipPath>
</g>
<g>
	<defs>
		<rect id="SVGID_00000095310195487684634910000001581296355661018268_" x="-83.66" y="-16.38" width="566.77" height="240.91"/>
	</defs>
	<clipPath id="SVGID_00000105390359374438994250000007442800147205083310_">
		<use xlink:href="#SVGID_00000095310195487684634910000001581296355661018268_"  style="overflow:visible;"/>
	</clipPath>
</g>
<g>
	<rect x="0.06" y="0.06" class="st5" width="67.12" height="67.12"/>
	<rect x="0.06" y="0.06" class="st135" width="67.12" height="67.12"/>
	<path class="st136" d="M51.75,22.13H15.38c-2.26,0-4.11,1.85-4.11,4.11v14.74c0,2.26,1.85,4.11,4.11,4.11h36.36
		c2.26,0,4.11-1.85,4.11-4.11V26.25C55.86,23.98,54.01,22.13,51.75,22.13 M51.75,23.5c0.73,0,1.42,0.29,1.94,0.81
		s0.81,1.21,0.81,1.94v14.74c0,0.73-0.29,1.42-0.81,1.94c-0.52,0.52-1.21,0.81-1.94,0.81H15.38c-0.73,0-1.42-0.29-1.94-0.81
		c-0.52-0.52-0.81-1.21-0.81-1.94V26.25c0-0.73,0.29-1.42,0.81-1.94c0.52-0.52,1.21-0.81,1.94-0.81H51.75"/>
	<path class="st136" d="M34.39,29.72c0-1.61,1.25-3.21,3.36-3.21c1.09,0,1.9,0.4,2.02,0.46v1.32c-0.11-0.07-0.81-0.52-1.81-0.52
		c-1.36,0-2.14,0.9-2.14,1.95c0,1.16,0.86,1.95,2.06,1.95c0.84,0,1.41-0.4,1.56-0.5l0.65,1.01c-0.26,0.21-0.97,0.75-2.4,0.75
		C35.74,32.93,34.39,31.45,34.39,29.72 M27.82,37.51c0-1.61,1.26-3.21,3.36-3.21c1.09,0,1.9,0.4,2.02,0.46v1.32
		c-0.11-0.07-0.81-0.52-1.8-0.52c-1.36,0-2.14,0.9-2.14,1.95c0,1.16,0.86,1.95,2.06,1.95c0.83,0,1.41-0.4,1.55-0.5l0.66,1.01
		c-0.26,0.22-0.96,0.75-2.4,0.75C29.17,40.72,27.82,39.24,27.82,37.51 M50.48,36.47c0-0.56-0.43-0.83-1.1-0.83h-1.12v1.65h1.15
		C50.08,37.29,50.48,36.99,50.48,36.47 M51.87,36.4c0,1.5-1.11,1.91-1.55,2.01l1.8,2.21h-1.72l-1.63-2.12h-0.5v2.12H46.9V34.4h2.63
		C51.01,34.4,51.87,35.24,51.87,36.4 M22.47,34.4h4.46v1.22h-3.1v1.23h2.74v1.21h-2.74v1.33h3.14v1.22h-4.5V34.4z M41.05,34.4h4.45
		v1.22h-3.1v1.23h2.74v1.21H42.4v1.33h3.14v1.22h-4.5V34.4z M19.96,37.51c0-1.1-0.76-1.87-1.87-1.87h-0.97v3.75h0.97
		C19.2,39.38,19.96,38.61,19.96,37.51 M21.39,37.51c0,1.75-1.35,3.11-3.3,3.11h-2.34V34.4h2.34C20.04,34.4,21.39,35.76,21.39,37.51
		 M48.52,30.33h-1.61v-1.23h1.61v-1.6h1.26v1.6h1.61v1.23h-1.61v1.6h-1.26V30.33z M34.48,34.4h1.37v2.71l2.34-2.71h1.83l-2.76,3.01
		l2.91,3.2h-1.83l-2.49-2.8v2.8h-1.37V34.4z M41.04,26.61h1.37v2.72l2.34-2.72h1.83l-2.75,3.01l2.9,3.2H44.9l-2.49-2.8v2.8h-1.37
		V26.61z M31.57,30.31l-0.86-2.1l-0.87,2.1H31.57z M30.09,26.57h1.34l2.66,6.26h-1.51l-0.57-1.39h-2.63l-0.57,1.39h-1.44
		L30.09,26.57z M22.47,26.61h1.37v4.97h3.09v1.24h-4.46V26.61z M19.67,30.94c0-0.39-0.29-0.68-0.99-0.68h-1.6v1.37h1.6
		C19.29,31.63,19.67,31.4,19.67,30.94 M20.68,28.23c0,0.8-0.54,1.22-0.82,1.35c0.33,0.1,1.16,0.44,1.16,1.54
		c0,1.14-0.92,1.71-2.33,1.71h-2.96v-6.21h2.88C20.03,26.61,20.68,27.36,20.68,28.23 M19.33,28.47c0-0.41-0.34-0.66-0.92-0.66h-1.33
		v1.31h1.33C19.01,29.12,19.33,28.87,19.33,28.47"/>
	<path class="st136" d="M55.48,22.8c0.06,0,0.09-0.03,0.09-0.07c0-0.05-0.03-0.07-0.09-0.07h-0.11v0.15H55.48z M55.25,22.54h0.25
		c0.12,0,0.21,0.06,0.21,0.17c0,0.08-0.05,0.14-0.12,0.16l0.13,0.19h-0.15l-0.11-0.16h-0.08v0.16h-0.13V22.54z M55.9,22.82
		L55.9,22.82c0-0.25-0.19-0.45-0.45-0.45c-0.25,0-0.45,0.21-0.45,0.45v0c0,0.25,0.19,0.45,0.45,0.45
		C55.71,23.27,55.9,23.06,55.9,22.82 M54.95,22.82L54.95,22.82c0-0.28,0.22-0.51,0.5-0.51c0.28,0,0.5,0.23,0.5,0.51v0
		c0,0.27-0.22,0.51-0.5,0.51C55.17,23.32,54.95,23.09,54.95,22.82"/>
</g>
<g>
	<defs>
		<rect id="SVGID_00000088824753029803715820000000190390990652041898_" x="-83.66" y="-16.38" width="566.77" height="240.91"/>
	</defs>
	<clipPath id="SVGID_00000049903781429661441950000011943075714970878624_">
		<use xlink:href="#SVGID_00000088824753029803715820000000190390990652041898_"  style="overflow:visible;"/>
	</clipPath>
</g>
<g>
	<defs>
		<rect id="SVGID_00000100378347939350731530000018365518760947844793_" x="-83.66" y="-16.38" width="566.77" height="240.91"/>
	</defs>
	<clipPath id="SVGID_00000130648841962085083660000015276827546835353488_">
		<use xlink:href="#SVGID_00000100378347939350731530000018365518760947844793_"  style="overflow:visible;"/>
	</clipPath>
</g>
<g>
	<defs>
		<rect id="SVGID_00000167365936828549719320000007857499493241490860_" x="-83.66" y="-16.38" width="566.77" height="240.91"/>
	</defs>
	<clipPath id="SVGID_00000108287722118908134850000015810301592577123260_">
		<use xlink:href="#SVGID_00000167365936828549719320000007857499493241490860_"  style="overflow:visible;"/>
	</clipPath>
</g>
</svg>
